<svg width="108" height="16" viewBox="0 0 108 16" fill="none" xmlns="http://www.w3.org/2000/svg">
<g clip-path="url(#clip0_155_2846)">
<path d="M21.75 0.25H2.25C1.14543 0.25 0.25 1.14543 0.25 2.25V13.75C0.25 14.8546 1.14543 15.75 2.25 15.75H21.75C22.8546 15.75 23.75 14.8546 23.75 13.75V2.25C23.75 1.14543 22.8546 0.25 21.75 0.25Z" fill="white" stroke="black" stroke-opacity="0.2" stroke-width="0.5"/>
<path d="M2.78773 5.91444C2.26459 5.62751 1.66754 5.39674 1 5.23659L1.028 5.11188H3.76498C4.13596 5.12489 4.43699 5.23651 4.53495 5.63071L5.12977 8.46659L5.31198 9.32073L6.97797 5.11188H8.77679L6.10288 11.2775H4.30397L2.78773 5.91444ZM10.1 11.2841H8.39883L9.46285 5.11188H11.1639L10.1 11.2841ZM16.2668 5.26277L16.0354 6.59559L15.8816 6.53004C15.5737 6.40525 15.1674 6.28054 14.6144 6.29371C13.9427 6.29371 13.6415 6.56277 13.6345 6.82546C13.6345 7.11441 13.9989 7.30484 14.5939 7.58725C15.574 8.02719 16.0286 8.56557 16.0218 9.26819C16.0081 10.5486 14.846 11.3761 13.0611 11.3761C12.2979 11.3694 11.5628 11.2181 11.1638 11.0476L11.4019 9.66205L11.6259 9.76066C12.1789 9.99071 12.5428 10.089 13.222 10.089C13.7118 10.089 14.2369 9.89838 14.2436 9.48488C14.2436 9.21565 14.0199 9.01851 13.3617 8.71646C12.7178 8.42087 11.8568 7.92848 11.8708 7.04198C11.8781 5.84042 13.0611 5 14.741 5C15.399 5 15.9312 5.13789 16.2668 5.26277ZM18.5278 9.09749H19.9417C19.8718 8.78889 19.5496 7.31147 19.5496 7.31147L19.4307 6.77964C19.3467 7.00943 19.1999 7.38373 19.2069 7.37056C19.2069 7.37056 18.6678 8.7429 18.5278 9.09749ZM20.6276 5.11188L22 11.284H20.4249C20.4249 11.284 20.2708 10.5748 20.2219 10.3581H18.0378C17.9746 10.5222 17.6808 11.284 17.6808 11.284H15.8958L18.4226 5.62399C18.5977 5.22342 18.906 5.11188 19.3118 5.11188H20.6276Z" fill="#171E6C"/>
</g>
<g clip-path="url(#clip1_155_2846)">
<path d="M50 0H30C28.8954 0 28 0.89543 28 2V14C28 15.1046 28.8954 16 30 16H50C51.1046 16 52 15.1046 52 14V2C52 0.89543 51.1046 0 50 0Z" fill="#252525"/>
<path d="M37 13C39.7614 13 42 10.7614 42 8C42 5.23858 39.7614 3 37 3C34.2386 3 32 5.23858 32 8C32 10.7614 34.2386 13 37 13Z" fill="#EB001B"/>
<path d="M43 13C45.7614 13 48 10.7614 48 8C48 5.23858 45.7614 3 43 3C40.2386 3 38 5.23858 38 8C38 10.7614 40.2386 13 43 13Z" fill="#F79E1B"/>
<path fill-rule="evenodd" clip-rule="evenodd" d="M40 3.99963C41.2144 4.91184 42 6.36418 42 8C42 9.63582 41.2144 11.0882 40 12.0004C38.7856 11.0882 38 9.63582 38 8C38 6.36418 38.7856 4.91184 40 3.99963Z" fill="#FF5F00"/>
</g>
<g clip-path="url(#clip2_155_2846)">
<path d="M78 0H58C56.8954 0 56 0.89543 56 2V14C56 15.1046 56.8954 16 58 16H78C79.1046 16 80 15.1046 80 14V2C80 0.89543 79.1046 0 78 0Z" fill="#016FD0"/>
<path fill-rule="evenodd" clip-rule="evenodd" d="M69.7637 13.3939V7.69246L79.9112 7.70157V9.27646L78.7383 10.5299L79.9112 11.7947V13.403H78.0386L77.0434 12.3049L76.0553 13.4072L69.7637 13.3939Z" fill="#FFFFFE"/>
<path fill-rule="evenodd" clip-rule="evenodd" d="M70.4414 12.7688V8.31991H74.2137V9.3448H71.6628V10.0405H74.1529V11.0483H71.6628V11.7316H74.2137V12.7688H70.4414Z" fill="#016FD0"/>
<path fill-rule="evenodd" clip-rule="evenodd" d="M74.1954 12.7688L76.2827 10.5418L74.1953 8.32H75.811L77.0865 9.73003L78.3656 8.32H79.9117V8.35501L77.8689 10.5418L79.9117 12.7057V12.7688H78.35L77.0519 11.3446L75.7671 12.7688H74.1954Z" fill="#016FD0"/>
<path fill-rule="evenodd" clip-rule="evenodd" d="M70.2369 2.63196H72.6829L73.5421 4.58281V2.63196H76.5619L77.0827 4.09353L77.6052 2.63196H79.9111V8.33335H67.7246L70.2369 2.63196Z" fill="#FFFFFE"/>
<path fill-rule="evenodd" clip-rule="evenodd" d="M70.7006 3.25136L68.7266 7.69653H70.0805L70.4529 6.80637H72.4708L72.843 7.69653H74.2306L72.2648 3.25136H70.7006ZM70.8702 5.8088L71.4622 4.39372L72.0538 5.8088H70.8702Z" fill="#016FD0"/>
<path fill-rule="evenodd" clip-rule="evenodd" d="M74.2119 7.69574V3.25065L76.115 3.25719L77.0943 5.98992L78.0799 3.25065H79.9115V7.69574L78.7329 7.70617V4.65282L77.6204 7.69574H76.5446L75.4089 4.64239V7.69574H74.2119Z" fill="#016FD0"/>
</g>
<g clip-path="url(#clip3_155_2846)">
<path d="M105.997 15.7499L105.999 15.7499C106.954 15.7581 107.738 14.9773 107.75 14.0042L107.75 2.0063C107.746 1.53569 107.559 1.08617 107.23 0.756802C106.901 0.428269 106.459 0.246149 105.997 0.250071L86.0006 0.250062C85.5411 0.246149 85.0986 0.428269 84.7703 0.756802C84.4411 1.08617 84.2538 1.53569 84.25 2.00426L84.25 13.9937C84.2538 14.4643 84.4411 14.9138 84.7703 15.2432C85.0986 15.5717 85.5411 15.7538 86.0028 15.7499H105.997ZM105.996 16.2499C105.996 16.2499 105.995 16.2499 105.995 16.2499L105.997 16.2499H105.996Z" fill="white" stroke="black" stroke-opacity="0.2" stroke-width="0.5"/>
<path d="M96.6123 15.9999H105.997C106.524 16.0043 107.031 15.7993 107.406 15.4299C107.782 15.0605 107.996 14.5571 108 14.0303V11.6717C104.456 13.706 100.613 15.1668 96.6123 15.9999Z" fill="#F27712"/>
<path d="M107.172 9.29648H106.32L105.36 8.03027H105.269V9.29648H104.573V6.15165H105.6C106.402 6.15165 106.866 6.48269 106.866 7.07855C106.866 7.56682 106.576 7.88131 106.055 7.98062L107.172 9.29648ZM106.146 7.10338C106.146 6.79717 105.914 6.63993 105.484 6.63993H105.269V7.59165H105.467C105.914 7.59165 106.146 7.42613 106.146 7.10338ZM102.14 6.15165H104.11V6.68131H102.835V7.38476H104.06V7.92269H102.835V8.7751H104.11V9.30476H102.14V6.15165ZM99.9058 9.37924L98.3996 6.14338H99.1609L100.113 8.262L101.073 6.14338H101.817L100.295 9.37924H99.9223H99.9058ZM93.6078 9.37096C92.5485 9.37096 91.7209 8.65096 91.7209 7.71579C91.7209 6.80544 92.5651 6.06889 93.6244 6.06889C93.9223 6.06889 94.1706 6.12682 94.4768 6.25924V6.98751C94.2449 6.75969 93.9329 6.63192 93.6078 6.63165C92.9458 6.63165 92.4409 7.11165 92.4409 7.71579C92.4409 8.35303 92.9375 8.8082 93.6409 8.8082C93.9554 8.8082 94.1954 8.70889 94.4768 8.46062V9.18889C94.1623 9.32131 93.8975 9.37096 93.6078 9.37096ZM91.5058 8.33648C91.5058 8.94889 91.0009 9.37096 90.2727 9.37096C89.743 9.37096 89.3623 9.18889 89.0396 8.7751L89.4947 8.38613C89.652 8.66751 89.9168 8.8082 90.2478 8.8082C90.5623 8.8082 90.7858 8.61786 90.7858 8.36958C90.7858 8.22889 90.7196 8.12131 90.5789 8.03855C90.4246 7.96369 90.264 7.90276 90.0989 7.85648C89.4451 7.64958 89.2216 7.42613 89.2216 6.98751C89.2216 6.47441 89.7016 6.08544 90.3306 6.08544C90.7278 6.08544 91.0837 6.20958 91.3816 6.44131L91.0175 6.8551C90.8732 6.69688 90.6689 6.60676 90.4547 6.60682C90.1568 6.60682 89.9416 6.75579 89.9416 6.95441C89.9416 7.11993 90.0658 7.21096 90.4796 7.35165C91.274 7.59993 91.5058 7.83165 91.5058 8.34476V8.33648ZM88.0878 6.15165H88.783V9.30476H88.0878V6.15165ZM85.8534 9.30476H84.8271V6.15165H85.8534C86.9789 6.15165 87.7568 6.79717 87.7568 7.72407C87.7568 8.19579 87.5251 8.64269 87.1196 8.94062C86.772 9.18889 86.383 9.30476 85.8451 9.30476H85.8534ZM86.6644 6.93786C86.4327 6.75579 86.1678 6.68958 85.7127 6.68958H85.5223V8.7751H85.7127C86.1596 8.7751 86.4409 8.69234 86.6644 8.52682C86.9044 8.3282 87.0451 8.03027 87.0451 7.72407C87.0451 7.41786 86.9044 7.1282 86.6644 6.93786Z" fill="black"/>
<path d="M96.414 6.06889C95.5036 6.06889 94.7588 6.79717 94.7588 7.69924C94.7588 8.65924 95.4705 9.37924 96.414 9.37924C97.3409 9.37924 98.0691 8.65096 98.0691 7.72407C98.0691 6.79717 97.3491 6.06889 96.414 6.06889Z" fill="#F27712"/>
</g>
<defs>
<clipPath id="clip0_155_2846">
<rect width="24" height="16" fill="white"/>
</clipPath>
<clipPath id="clip1_155_2846">
<rect width="24" height="16" fill="white" transform="translate(28)"/>
</clipPath>
<clipPath id="clip2_155_2846">
<rect width="24" height="16" fill="white" transform="translate(56)"/>
</clipPath>
<clipPath id="clip3_155_2846">
<rect width="24" height="16" fill="white" transform="translate(84)"/>
</clipPath>
</defs>
</svg>
