<svg width="24" height="24" viewBox="0 0 24 24" fill="none" xmlns="http://www.w3.org/2000/svg">
<g clip-path="url(#clip0_985_12282)">
<path d="M24 3.5C24 4.33 23.33 5 22.5 5H1.5C0.67 5 0 4.33 0 3.5C0 2.67 0.67 2 1.5 2H22.5C23.33 2 24 2.67 24 3.5ZM6.5 20H1.5C0.67 20 0 20.67 0 21.5C0 22.33 0.67 23 1.5 23H6.5C7.33 23 8 22.33 8 21.5C8 20.67 7.33 20 6.5 20ZM14.5 11H1.5C0.67 11 0 11.67 0 12.5C0 13.33 0.67 14 1.5 14H14.5C15.33 14 16 13.33 16 12.5C16 11.67 15.33 11 14.5 11Z" fill="#0A846B"/>
</g>
<defs>
<clipPath id="clip0_985_12282">
<rect width="24" height="24" fill="white"/>
</clipPath>
</defs>
</svg>
