<svg width="17" height="16" viewBox="0 0 17 16" fill="none" xmlns="http://www.w3.org/2000/svg">
<g clip-path="url(#clip0_219_738)">
<path d="M15.2094 6.64932L12.3927 9.10932L13.2368 12.7727C13.27 12.9158 13.2713 13.0644 13.2406 13.2081C13.2099 13.3518 13.148 13.4869 13.0593 13.604C12.9705 13.721 12.8571 13.8171 12.727 13.8855C12.597 13.9538 12.4535 13.9927 12.3068 13.9993C12.1103 14.0078 11.9158 13.9582 11.7474 13.8567L8.55542 11.9187L5.37008 13.8567C5.20172 13.9583 5.00711 14.008 4.81063 13.9995C4.61415 13.9911 4.42454 13.9248 4.26553 13.8091C4.10653 13.6934 3.98521 13.5333 3.91676 13.3489C3.84831 13.1646 3.83579 12.9641 3.88075 12.7727L4.72342 9.11333L1.90608 6.64932C1.75713 6.52073 1.64943 6.35104 1.59647 6.16152C1.54351 5.972 1.54764 5.77106 1.60835 5.58387C1.66906 5.39669 1.78365 5.23158 1.93777 5.10921C2.09188 4.98685 2.27867 4.91268 2.47475 4.89599L6.18875 4.57332L7.63875 1.11332C7.71463 0.932097 7.84238 0.777339 8.00595 0.668497C8.16952 0.559656 8.36161 0.501587 8.55808 0.501587C8.75456 0.501587 8.94664 0.559656 9.11021 0.668497C9.27378 0.777339 9.40154 0.932097 9.47742 1.11332L10.9307 4.57332L14.6441 4.89532C14.7909 4.90751 14.9331 4.952 15.0607 5.02562C15.1882 5.09924 15.2979 5.20016 15.3819 5.32115C15.4659 5.44215 15.5221 5.58022 15.5464 5.72547C15.5708 5.87072 15.5627 6.01956 15.5227 6.16132C15.4697 6.35097 15.3619 6.52073 15.2127 6.64932H15.2094Z" fill="#3D3D3D"/>
</g>
<defs>
<clipPath id="clip0_219_738">
<rect width="16" height="16" fill="white" transform="translate(0.55957)"/>
</clipPath>
</defs>
</svg>
