<svg width="16" height="16" viewBox="0 0 16 16" fill="none" xmlns="http://www.w3.org/2000/svg">
<path d="M8.27563 11.921L11.4281 13.918C11.8311 14.173 12.3311 13.7935 12.2116 13.323L11.3011 9.74055C11.2754 9.64075 11.2784 9.53573 11.3097 9.43755C11.341 9.33937 11.3994 9.25202 11.4781 9.18554L14.3051 6.83305C14.6761 6.52404 14.4851 5.90755 14.0076 5.87654L10.3161 5.63655C10.2167 5.62949 10.1214 5.59436 10.0412 5.53523C9.961 5.4761 9.89925 5.39541 9.86313 5.30254L8.48613 1.83555C8.44864 1.73701 8.38208 1.65221 8.29528 1.59237C8.20849 1.53253 8.10555 1.50049 8.00013 1.50049C7.89471 1.50049 7.79177 1.53253 7.70498 1.59237C7.61818 1.65221 7.55162 1.73701 7.51413 1.83555L6.13713 5.30254C6.10109 5.3955 6.03937 5.4763 5.95916 5.53552C5.87896 5.59474 5.78358 5.62995 5.68413 5.63704L1.99263 5.87704C1.51563 5.90754 1.32363 6.52404 1.69513 6.83305L4.52213 9.18604C4.60079 9.25248 4.65911 9.33974 4.69042 9.43783C4.72173 9.53591 4.72475 9.64083 4.69913 9.74055L3.85513 13.063C3.71163 13.6275 4.31213 14.083 4.79513 13.7765L7.72513 11.921C7.80748 11.8687 7.90304 11.8409 8.00063 11.8409C8.09821 11.8409 8.19378 11.8687 8.27613 11.921H8.27563Z" fill="#FF8A00"/>
</svg>
