<svg width="18" height="17" viewBox="0 0 18 17" fill="none" xmlns="http://www.w3.org/2000/svg">
<path fill-rule="evenodd" clip-rule="evenodd" d="M15.3045 2.47067C13.62 0.878333 11.3805 0.000708333 8.99475 0C4.0785 0 0.07725 3.77825 0.075 8.4235C0.07425 9.90817 0.48525 11.3574 1.266 12.6352L0 17L4.728 15.8284C6.03075 16.4999 7.49775 16.8534 8.99025 16.8541H8.994C13.9095 16.8541 17.9115 13.0751 17.9137 8.42987C17.9153 6.1795 16.9883 4.06229 15.3045 2.47067ZM8.99475 15.431H8.99175C7.66125 15.431 6.357 15.0932 5.2185 14.455L4.94775 14.3034L2.142 14.9982L2.89125 12.4142L2.715 12.1493C1.9725 11.0344 1.581 9.74596 1.58175 8.4235C1.58325 4.56308 4.9095 1.42233 8.9985 1.42233C10.9785 1.42233 12.84 2.15192 14.2395 3.47508C15.639 4.79896 16.4093 6.55775 16.4085 8.42846C16.4062 12.2903 13.0807 15.431 8.99475 15.431ZM13.0613 10.1873C12.8385 10.0817 11.7428 9.57242 11.538 9.50229C11.334 9.43217 11.1855 9.39675 11.0363 9.60712C10.887 9.8175 10.461 10.2921 10.3305 10.433C10.2008 10.5733 10.0703 10.591 9.8475 10.4855C9.62475 10.3799 8.90625 10.1582 8.055 9.44067C7.39275 8.8825 6.945 8.19329 6.81525 7.98221C6.6855 7.77112 6.80175 7.65779 6.91275 7.55296C7.01325 7.45875 7.1355 7.30717 7.24725 7.18392C7.35975 7.06208 7.3965 6.97425 7.4715 6.83329C7.54575 6.69304 7.509 6.56979 7.45275 6.46425C7.3965 6.35942 6.951 5.32312 6.76575 4.90167C6.585 4.49083 6.40125 4.54679 6.264 4.54042C6.13425 4.53404 5.98575 4.53333 5.8365 4.53333C5.688 4.53333 5.4465 4.58575 5.2425 4.79683C5.0385 5.00792 4.4625 5.51721 4.4625 6.55279C4.4625 7.58908 5.26125 8.58996 5.37225 8.73021C5.48325 8.87046 6.9435 10.9969 9.17925 11.9085C9.711 12.1252 10.1265 12.2549 10.4497 12.3519C10.9837 12.512 11.4698 12.4893 11.8538 12.4355C12.282 12.3753 13.1723 11.9262 13.3583 11.4346C13.5443 10.943 13.5443 10.5209 13.488 10.4337C13.4325 10.3452 13.284 10.2928 13.0613 10.1873Z" fill="#0A846B"/>
</svg>
