<?xml version="1.0" encoding="UTF-8"?>
<svg version="1.1" xmlns="http://www.w3.org/2000/svg" width="500" height="500">
<path d="M0 0 C2 2 2 2 2 5.3125 C1 9 1 9 -2 11.375 C-5.3771021 13.76837738 -5.3771021 13.76837738 -5.625 17.8125 C-5.66238281 18.59238281 -5.69976562 19.37226563 -5.73828125 20.17578125 C-6.06662136 23.7189141 -6.91510052 27.06800837 -7.8125 30.5 C-8.16822553 31.87493359 -8.5236879 33.24993529 -8.87890625 34.625 C-9.06211426 35.33269531 -9.24532227 36.04039062 -9.43408203 36.76953125 C-10.42313592 40.66771775 -11.33578487 44.58370561 -12.25 48.5 C-12.4250708 49.24830078 -12.6001416 49.99660156 -12.78051758 50.76757812 C-13.18799093 52.51149024 -13.59415019 54.25570933 -14 56 C-9.05 56 -4.1 56 1 56 C1.09796875 54.79214844 1.1959375 53.58429688 1.296875 52.33984375 C2.01325777 45.93623347 3.634086 39.78892606 5.25 33.5625 C5.53746094 32.39912109 5.82492187 31.23574219 6.12109375 30.03710938 C7.77173129 23.63277986 9.7445931 17.88748091 12.89770508 12.06469727 C14.16229936 9.78927189 14.16229936 9.78927189 15.4375 6.375 C19.41707165 2.68661652 23.5494814 3.51010796 28.78515625 3.69140625 C32 4 32 4 35 5 C35.890625 6.82421875 35.890625 6.82421875 36 9 C34.671875 10.89453125 34.671875 10.89453125 32.75 12.8125 C28.37601242 17.53570814 25.78794322 21.46392246 26 28.125 C26 32.45373013 25.27110614 33.46716823 23 37 C22.1609051 39.51317149 21.44316414 42.04173148 20.74609375 44.59765625 C20.03219042 46.89635023 19.07482954 48.85476408 18 51 C17.61709538 52.99110401 17.27395385 54.99100513 17 57 C18.134375 57.144375 19.26875 57.28875 20.4375 57.4375 C24 58 24 58 25 59 C25.04080783 60.99958364 25.04254356 63.00045254 25 65 C20.63799813 67.44697666 16.97306516 68.50269348 12 69 C8.05653295 80.12621062 8.6970605 91.36090917 9 103 C9.66 103 10.32 103 11 103 C10.67 104.65 10.34 106.3 10 108 C-0.81059863 110.63788027 -0.81059863 110.63788027 -4 110 C-9.01332484 104.8434373 -10.38790665 100.44703828 -10.375 93.375 C-10.37628906 92.64095947 -10.37757813 91.90691895 -10.37890625 91.15063477 C-10.21825538 82.51108652 -8.18001269 74.3210306 -6 66 C-9.63 65.67 -13.26 65.34 -17 65 C-17.13728516 66.47146484 -17.13728516 66.47146484 -17.27734375 67.97265625 C-18.68590316 77.71498802 -24.4646526 88.99571437 -31.875 95.421875 C-32.926875 96.20304687 -32.926875 96.20304687 -34 97 C-34.78375 97.58265625 -35.5675 98.1653125 -36.375 98.765625 C-42.20616041 102.66521353 -47.04500606 103.93159022 -54 104 C-54.72445312 104.04898438 -55.44890625 104.09796875 -56.1953125 104.1484375 C-60.88608429 104.38030074 -64.15004147 103.7231414 -68 101 C-68.75 98.375 -68.75 98.375 -69 96 C-69.66 95.67 -70.32 95.34 -71 95 C-73.18672939 90.87885615 -73.21110578 87.29415915 -73.125 82.6875 C-73.10695313 81.43324219 -73.08890625 80.17898438 -73.0703125 78.88671875 C-73.04710937 77.93410156 -73.02390625 76.98148437 -73 76 C-75.1066558 81.79330344 -76.0154404 86.87264167 -75 93 C-73.39618802 96.08619971 -71.41278394 98.5108993 -69 101 C-68.52175781 101.5465625 -68.04351562 102.093125 -67.55078125 102.65625 C-63.3609447 106.28673809 -56.82526716 105.31853649 -51.62109375 105.296875 C-47.32099743 104.94433204 -44.04152094 103.83810111 -40.18359375 101.97265625 C-37.80444712 100.91289326 -35.56193101 100.42773892 -33 100 C-33 99.34 -33 98.68 -33 98 C-28.0932788 98.50232012 -25.17670338 99.92497497 -21.125 102.6875 C-0.39218232 116.07038231 27.43497134 120.52813089 51.6875 121.69140625 C54.16282326 122.0217281 55.84844734 122.75986895 58 124 C57.67 124.99 57.34 125.98 57 127 C52.19281138 127.9553994 47.53022159 128.13885488 42.6477356 128.12025452 C41.40885474 128.12153615 41.40885474 128.12153615 40.14494598 128.12284368 C37.38583364 128.12448682 34.6267825 128.11899623 31.86767578 128.11352539 C29.8865204 128.11324324 27.90536491 128.1134018 25.92420959 128.1139679 C20.55076016 128.11425479 15.17733305 128.10837549 9.8038888 128.10139394 C4.18647023 128.09514243 -1.43094885 128.09455518 -7.04837036 128.09336853 C-17.68359046 128.09026052 -28.31880028 128.08205426 -38.95401585 128.07201904 C-51.06275031 128.06084146 -63.17148527 128.0553433 -75.28022361 128.05032361 C-100.18682144 128.03987123 -125.09341014 128.02228203 -150 128 C-150.97468982 125.27760064 -151.94604513 122.55408756 -152.91552734 119.82983398 C-153.1903746 119.06323204 -153.46522186 118.2966301 -153.74839783 117.50679779 C-157.22345237 107.72168934 -158.38883576 98.82738429 -158.375 88.4375 C-158.37483887 87.30014404 -158.37467773 86.16278809 -158.37451172 84.9909668 C-158.22918077 74.1760494 -156.1992234 64.77149198 -152.86328125 54.5 C-151.65356843 49.59546297 -152.00422369 45.02501231 -152.22265625 40.01171875 C-152.14917969 39.01785156 -152.07570313 38.02398437 -152 37 C-148.83759418 34.89172945 -147.49342531 34.66182535 -143.8125 34.375 C-142.91144531 34.30023438 -142.01039063 34.22546875 -141.08203125 34.1484375 C-140.39496094 34.09945312 -139.70789063 34.05046875 -139 34 C-139.66 33.67 -140.32 33.34 -141 33 C-140.67 32.34 -140.34 31.68 -140 31 C-138.6696875 31.5259375 -138.6696875 31.5259375 -137.3125 32.0625 C-124.56535602 35.67018226 -104.36618732 23.04789518 -93.26391602 16.90161133 C-89.16503641 14.59766951 -85.29142722 12.32663159 -81.72265625 9.2578125 C-79 7 -79 7 -77 7 C-77 6.34 -77 5.68 -77 5 C-75.609375 3.67578125 -75.609375 3.67578125 -73.75 2.3125 C-73.14671875 1.85488281 -72.5434375 1.39726562 -71.921875 0.92578125 C-70 0 -70 0 -67.890625 0.1875 C-64.7783312 1.52501469 -63.71330346 4.16234114 -62 7 C-61.236875 8.03125 -60.47375 9.0625 -59.6875 10.125 C-58 13 -58 13 -58.09765625 14.9140625 C-59.36678827 17.84790015 -61.29176976 19.22814199 -63.75 21.25 C-69.04669 25.84198017 -72.77335762 30.32007286 -75 37 C-75.12248619 39.63772577 -75.18512384 42.23745795 -75.1875 44.875 C-75.19974609 45.58269531 -75.21199219 46.29039062 -75.22460938 47.01953125 C-75.24193898 53.22353041 -74.14535563 57.09664431 -69.9375 61.625 C-67.83822359 63.89365568 -67.00420834 64.98737499 -66 68 C-65.01 67.34 -64.02 66.68 -63 66 C-60.4375 66.1875 -60.4375 66.1875 -58 67 C-55.65831236 70.51253146 -55.50376323 71.86469356 -56 76 C-56.639375 76.763125 -57.27875 77.52625 -57.9375 78.3125 C-60.73317042 81.95534327 -61.04686319 85.46364303 -61 90 C-59.14729055 91.85270945 -56.62223941 91.84058451 -54.1328125 92.1171875 C-51.17049223 91.95442265 -49.34837998 90.64112542 -47.25 88.60546875 C-45.16472146 85.92718912 -44.14413983 83.19154795 -43 80 C-42.67 79.34 -42.34 78.68 -42 78 C-41.34 78 -40.68 78 -40 78 C-39.71125 77.0925 -39.4225 76.185 -39.125 75.25 C-38.23468224 72.67797092 -37.28505587 70.38653234 -36 68 C-37.32 68 -38.64 68 -40 68 C-40.08226668 64.95613276 -39.97608217 62.92824652 -39 60 C-39.41507812 60.3609375 -39.83015625 60.721875 -40.2578125 61.09375 C-46.69452464 65.94148299 -53.1761946 66.02545022 -61 65 C-66.42367962 62.47518362 -69.78096937 58.68186738 -72.25 53.25 C-74.29385966 44.39327482 -72.73143838 36.78001716 -68.25 28.9375 C-67.5075 27.968125 -66.765 26.99875 -66 26 C-65.5875 25.38511719 -65.175 24.77023437 -64.75 24.13671875 C-54.1260227 9.88841586 -31.42029894 5.25807852 -15.03125 1.89453125 C-12.45768556 1.35872357 -10.15040895 0.71449789 -7.640625 -0.12890625 C-4.6009791 -1.13162968 -3.01288598 -1.00429533 0 0 Z M-20 15 C-22.73543859 15.53984951 -25.4609665 16.10563144 -28.1875 16.6875 C-28.95642578 16.83638672 -29.72535156 16.98527344 -30.51757812 17.13867188 C-35.79138597 18.29302466 -38.36580425 19.82670017 -42 24 C-44.26814695 25.7444386 -46.57916775 27.40504201 -48.9140625 29.05859375 C-53.71141242 33.52354302 -54.60866652 38.97888756 -55.3125 45.1875 C-55.41111328 45.89841797 -55.50972656 46.60933594 -55.61132812 47.34179688 C-56.08514486 51.24619373 -56.25004223 52.62493666 -54 56 C-51.36 55.67 -48.72 55.34 -46 55 C-44.41217241 50.83195258 -43.61177889 47.46454277 -44 43 C-44.65035814 41.65863633 -45.3162955 40.32467746 -46 39 C-46.1875 36.3125 -46.1875 36.3125 -46 34 C-45 33 -45 33 -42.3125 32.625 C-38.89762288 33.01158986 -36.7032716 33.70237752 -34.1328125 36.05078125 C-31.2398406 41.02868808 -32.40757241 47.96380859 -33.46875 53.40234375 C-34 55.3125 -34 55.3125 -35 58 C-33.68 58 -32.36 58 -31 58 C-30.84966309 57.36199463 -30.69932617 56.72398926 -30.54443359 56.06665039 C-27.79928572 44.51233754 -25.03435854 33.09586113 -20.74169922 22.00415039 C-20.1121274 20.35397224 -19.54889996 18.67873685 -19 17 C-19.495 16.01 -19.495 16.01 -20 15 Z " fill="#2A2A2A" transform="translate(260,254)"/>
<path d="M0 0 C1.07036499 0.22260498 1.07036499 0.22260498 2.16235352 0.44970703 C7.29132076 1.68152614 10.37514582 3.58027837 14.125 7.3125 C14.125 7.9725 14.125 8.6325 14.125 9.3125 C14.72183594 9.55613281 15.31867188 9.79976562 15.93359375 10.05078125 C21.50030527 13.25585758 25.32217621 21.40324425 27.125 27.3125 C27.125 29.25044798 27.07903411 31.18866429 27 33.125 C26.81368457 40.60556456 29.62316657 45.28498202 33.4765625 51.48828125 C37.50469976 58.0030619 40.75672301 64.72506193 43.87792969 71.71264648 C45.82555077 75.97533982 47.51655774 79.1914726 51.125 82.3125 C52.1875 84.25 52.1875 84.25 52.125 86.3125 C49.66473429 89.18280999 47.27010786 91.21576143 44.125 93.3125 C43.135 93.3125 42.145 93.3125 41.125 93.3125 C41.125 93.9725 41.125 94.6325 41.125 95.3125 C29.17717135 105.32759166 11.99980504 110.05421436 -2.43896484 115.23193359 C-6.51419808 116.66997916 -6.51419808 116.66997916 -9.875 119.3125 C-11.77184397 119.34577796 -13.66998853 119.36860123 -15.56640625 119.31640625 C-19.36877012 119.30997247 -23.10905805 119.82432234 -26.875 120.3125 C-26.82859375 119.59964844 -26.7821875 118.88679688 -26.734375 118.15234375 C-26.48382649 111.50386014 -26.81674352 107.65231116 -30.875 102.3125 C-36.57505895 96.45627505 -42.67031141 94.48431916 -50.71484375 94.21875 C-55.91434729 94.1673334 -60.75292176 94.38121305 -65.875 95.3125 C-75.71400871 96.17557094 -85.49809429 93.22773023 -93.09375 86.875 C-93.6815625 86.359375 -94.269375 85.84375 -94.875 85.3125 C-95.71675781 84.72082031 -96.55851562 84.12914062 -97.42578125 83.51953125 C-100.36712432 80.86903869 -101.24908775 78.71333495 -102.5625 75 C-102.97242188 73.84886719 -103.38234375 72.69773437 -103.8046875 71.51171875 C-104.15789062 70.45597656 -104.51109375 69.40023437 -104.875 68.3125 C-105.12507813 67.57644531 -105.37515625 66.84039062 -105.6328125 66.08203125 C-106.67155547 62.76829488 -107.59562112 59.73545032 -106.875 56.3125 C-105.02295642 54.25025515 -103.18193677 52.92735574 -100.875 51.3125 C-100.215 51.3125 -99.555 51.3125 -98.875 51.3125 C-98.65223389 50.6944751 -98.42946777 50.0764502 -98.19995117 49.43969727 C-96.4123287 46.56968536 -94.87508221 46.27073524 -91.67578125 45.27734375 C-90.63099609 44.94283203 -89.58621094 44.60832031 -88.50976562 44.26367188 C-87.41341797 43.92916016 -86.31707031 43.59464844 -85.1875 43.25 C-83.03690842 42.57432042 -80.88714511 41.89599802 -78.73828125 41.21484375 C-77.72459473 40.89370605 -76.7109082 40.57256836 -75.66650391 40.24169922 C-69.84872576 38.52138348 -69.84872576 38.52138348 -64.875 35.3125 C-64.62750744 33.33554135 -64.40244842 31.35576128 -64.1875 29.375 C-62.91340297 20.95488053 -60.00804777 14.27166083 -53.0625 9.0625 C-37.09744712 -0.4624129 -18.06534774 -3.95915497 0 0 Z M-22.875 35.3125 C-22.99298604 39.08306169 -23.06283864 42.85313765 -23.125 46.625 C-23.15851563 47.67751953 -23.19203125 48.73003906 -23.2265625 49.81445312 C-23.32935444 58.1662986 -22.33133061 67.14241632 -16.25 73.4375 C-12.30441946 76.552432 -9.88388216 76.48825025 -4.875 76.3125 C-0.87503714 74.97917905 -0.03717663 72.8167173 2.125 69.3125 C1.56941406 69.47363281 1.01382813 69.63476562 0.44140625 69.80078125 C-2.07574733 70.35684722 -4.3611512 70.48057052 -6.9375 70.5 C-7.79472656 70.51417969 -8.65195313 70.52835938 -9.53515625 70.54296875 C-11.875 70.3125 -11.875 70.3125 -14.875 68.3125 C-15.865 68.3125 -16.855 68.3125 -17.875 68.3125 C-21.4368869 57.49242847 -21.58775105 46.60566882 -21.875 35.3125 C-22.205 35.3125 -22.535 35.3125 -22.875 35.3125 Z M3.125 66.3125 C4.125 68.3125 4.125 68.3125 4.125 68.3125 Z " fill="#2B2B2B" transform="translate(132.875,157.6875)"/>
<path d="M0 0 C1.7492214 -0.08142927 3.49954542 -0.13938541 5.25 -0.1875 C6.22453125 -0.22230469 7.1990625 -0.25710937 8.203125 -0.29296875 C11.37468742 0.03924798 12.67040307 0.88672279 15 3 C14.125 10.75 14.125 10.75 13 13 C11.91112357 20.18658443 16.27615612 26.45553416 19.35742188 32.68164062 C22.19513768 38.61430403 23.68192958 43.41526565 24 50 C26.39223431 47.60776569 26.92487314 45.69178287 28 42.5 C29.77777778 37.22222222 29.77777778 37.22222222 32 35 C37.56818182 35.56818182 37.56818182 35.56818182 39 37 C39.71133621 45.71386857 36.64626671 52.28545252 31.21484375 58.95703125 C27.1247871 62.72969373 22.20386119 64.26765302 17 66 C16.21238281 66.30679688 15.42476562 66.61359375 14.61328125 66.9296875 C7.30966461 69.68329521 -0.43946076 71.42579434 -7.875 68.375 C-11.57377895 66.47277082 -14.21810419 64.10917767 -17 61 C-18.485 60.01 -18.485 60.01 -20 59 C-20.06574219 59.59296875 -20.13148438 60.1859375 -20.19921875 60.796875 C-21.32408487 63.89162862 -22.99844156 64.61842292 -25.8125 66.25 C-27.12154297 67.03117187 -27.12154297 67.03117187 -28.45703125 67.828125 C-31 69 -31 69 -35 69 C-34.92394531 69.95132813 -34.84789062 70.90265625 -34.76953125 71.8828125 C-34.77593192 76.97518325 -36.74180626 81.24306123 -38.6875 85.875 C-39.02716797 86.72191406 -39.36683594 87.56882812 -39.71679688 88.44140625 C-46.71813573 105.53252503 -46.71813573 105.53252503 -53.35546875 109.1875 C-56.93108743 110.28606527 -60.41262407 110.50119781 -64.125 110.5625 C-65.14654175 110.58485718 -65.14654175 110.58485718 -66.1887207 110.60766602 C-71.20047614 110.50461374 -74.18369279 109.19964781 -78 106 C-78.78800308 103.35456108 -78.96726318 101.7031259 -79 99 C-79.06058594 97.96617187 -79.12117188 96.93234375 -79.18359375 95.8671875 C-79.55514124 85.98177256 -79.55514124 85.98177256 -77.125 82.1875 C-76.073125 81.1046875 -76.073125 81.1046875 -75 80 C-74.34 80 -73.68 80 -73 80 C-72.505 78.515 -72.505 78.515 -72 77 C-70.00390625 75.68359375 -70.00390625 75.68359375 -67.5625 74.4375 C-64.93969409 73.08610241 -63.0968741 72.0968741 -61 70 C-58.3984375 69.3671875 -58.3984375 69.3671875 -55.375 68.875 C-54.37210937 68.70742187 -53.36921875 68.53984375 -52.3359375 68.3671875 C-51.56507813 68.24601562 -50.79421875 68.12484375 -50 68 C-53.05270463 67.84188612 -53.05270463 67.84188612 -56 69 C-61.35563546 69.84958876 -65.27243485 69.27120678 -69.9375 66.4375 C-72.90368265 64.27229001 -74.53523431 62.67702431 -75.5625 59.125 C-75.706875 58.09375 -75.85125 57.0625 -76 56 C-81.43674925 55.97683345 -81.43674925 55.97683345 -85.9609375 58.671875 C-87.26455775 60.08723413 -88.56522626 61.50531636 -89.86328125 62.92578125 C-94.95966914 67.87309747 -101.91371486 70.87989347 -109 71 C-116.0892229 70.56762046 -122.57856924 70.06223198 -127.69921875 64.73828125 C-133.2278894 57.35011777 -132.65747256 48.84922526 -132 40 C-130.57169409 30.51936076 -128.15261666 21.00790733 -120.875 14.3125 C-113.67021539 9.26915078 -103.64675071 7.31701109 -95 7 C-91.75330131 7.58128666 -88.96052611 8.56533026 -86 10 C-85.32066406 10.22171875 -84.64132812 10.4434375 -83.94140625 10.671875 C-80.92699787 12.73404573 -79.90652451 15.5882484 -79 19 C-78.8203125 22.76171875 -78.8203125 22.76171875 -79.125 26.6875 C-79.177771 27.37650391 -79.23054199 28.06550781 -79.28491211 28.77539062 C-79.84045127 35.02285836 -81.19190824 40.99577077 -83 47 C-80.69 46.67 -78.38 46.34 -76 46 C-75.99742187 45.04480469 -75.99484375 44.08960938 -75.9921875 43.10546875 C-75.68482242 32.8292296 -74.0249198 24.79651436 -66.25 17.375 C-64 16 -64 16 -62 15 C-61.86980469 14.36578125 -61.73960937 13.7315625 -61.60546875 13.078125 C-61 11 -61 11 -59.42578125 9.734375 C-52.34675498 6.43693578 -45.70188636 6.6055933 -38 7 C-37.505 8.485 -37.505 8.485 -37 10 C-33.90039195 10.14416782 -31.563582 10.24371113 -28.6875 9 C-24.84814566 7.57140303 -21.06111707 7.63919828 -17 8 C-16.505 8.495 -16.505 8.495 -16 9 C-16.3901921 15.67917063 -18.39467325 21.24345556 -20.8125 27.4375 C-24.3705203 36.83607415 -27.01577942 46.15722158 -29 56 C-20.88789136 49.32076729 -16.77424875 44.13379555 -13.16015625 34.046875 C-11.81885747 30.52427215 -10.39627734 27.89205886 -8 25 C-7.34 25 -6.68 25 -6 25 C-5.81824219 23.98292969 -5.81824219 23.98292969 -5.6328125 22.9453125 C-5.09568655 19.96219763 -4.54883159 16.98098252 -4 14 C-3.74863281 12.60587891 -3.74863281 12.60587891 -3.4921875 11.18359375 C-3.24855469 9.88615234 -3.24855469 9.88615234 -3 8.5625 C-2.855625 7.78003906 -2.71125 6.99757812 -2.5625 6.19140625 C-1.97924637 3.91914732 -1.12253181 2.05329777 0 0 Z M-54.0625 25.9375 C-58.77660099 33.38882092 -62.09912461 43.09709062 -61 52 C-58.36559731 54.6987992 -56.93486839 55.01155561 -53.125 55.6875 C-50.52544984 55.56670306 -49.33252488 55.26647542 -47.2890625 53.62890625 C-41.14592757 46.12929228 -38.50687426 36.63135743 -38.6640625 27.05859375 C-38.90394897 24.69617161 -38.90394897 24.69617161 -41 22 C-46.30690318 21.41034409 -50.14835832 22.26057903 -54.0625 25.9375 Z M-105 23 C-106.34324061 25.24068957 -107.50371465 27.4029027 -108.625 29.75 C-108.93695313 30.37132812 -109.24890625 30.99265625 -109.5703125 31.6328125 C-112.68847881 38.00354884 -113.70919297 43.96060315 -113 51 C-112.08686892 53.63926464 -112.08686892 53.63926464 -110 55 C-106.85929224 55.45801988 -104.93958038 55.67329377 -102.3046875 53.78515625 C-100.5371142 51.36665027 -100.85344996 49.94325208 -101.125 47 C-101.22265625 44.30078125 -101.22265625 44.30078125 -101 42 C-98.5625 40.1875 -98.5625 40.1875 -96 39 C-94.64070706 34.9929177 -95.23750424 32.17148592 -96.4375 28.1875 C-96.72496094 27.21167969 -97.01242187 26.23585937 -97.30859375 25.23046875 C-97.53675781 24.49441406 -97.76492188 23.75835937 -98 23 C-101.01031744 22.06576355 -101.86650268 21.95550089 -105 23 Z M1 28 C-2.93252297 34.26745848 -3.35887307 38.88247065 -3.04296875 46.2421875 C-3 49 -3 49 -4 51 C-4.99 51.33 -5.98 51.66 -7 52 C-6.73343428 54.93443402 -6.73343428 54.93443402 -6 58 C-4.515 58.99 -4.515 58.99 -3 60 C1.06117833 58.36152533 1.06117833 58.36152533 4.140625 55.40625 C5.38708858 51.91615198 5.64681209 48.41965839 5.875 44.75 C5.92325928 43.99017822 5.97151855 43.23035645 6.02124023 42.44750977 C6.25886059 36.58263601 5.43125742 32.88694238 2 28 C1.67 28 1.34 28 1 28 Z M-61.0234375 85.9765625 C-63.73392483 88.75133017 -65.29935037 91.52784034 -67 95 C-65.77190909 96.64555699 -65.77190909 96.64555699 -64 98 C-61.36887933 97.76224813 -60.30693091 97.36289069 -58.5859375 95.328125 C-54.44202146 88.59846627 -54.44202146 88.59846627 -53 81 C-56.46598966 81 -58.53138398 83.75636936 -61.0234375 85.9765625 Z " fill="#0A836A" transform="translate(434,165)"/>
<path d="M0 0 C2.375 2.5 2.375 2.5 2.875 6.0625 C2.74464327 7.54530779 2.57500392 9.02497111 2.375 10.5 C2.313125 11.28117187 2.25125 12.06234375 2.1875 12.8671875 C0.75359731 24.66103712 -5.63175805 37.76320066 -13.625 46.5 C-14.615 46.5 -15.605 46.5 -16.625 46.5 C-16.625 47.16 -16.625 47.82 -16.625 48.5 C-17.285 48.5 -17.945 48.5 -18.625 48.5 C-18.7075 49.345625 -18.79 50.19125 -18.875 51.0625 C-19.625 54.5 -19.625 54.5 -21.6875 57.625 C-24.72729041 62.48646987 -23.95150628 67.97660207 -23.625 73.5 C-16.2853123 71.66507807 -14.15554053 67.43201513 -10.4375 61.25 C-9.92832031 60.37859375 -9.41914063 59.5071875 -8.89453125 58.609375 C-7.625 56.5 -7.625 56.5 -6.625 55.5 C-4.125 55.375 -4.125 55.375 -1.625 55.5 C-0.625 56.5 -0.625 56.5 -0.1875 59.3125 C-0.32201709 67.48441326 -6.19864453 76.15890843 -11.64453125 81.94140625 C-17.2752879 86.37271178 -24.69023975 87.20522986 -31.625 86.5 C-35.21052881 84.86312815 -36.41815055 83.81027417 -38.625 80.5 C-38.625 79.18 -38.625 77.86 -38.625 76.5 C-39.285 76.5 -39.945 76.5 -40.625 76.5 C-40.87636719 77.09554687 -41.12773437 77.69109375 -41.38671875 78.3046875 C-43.88524537 82.73425204 -48.66466244 85.44443362 -53.0625 87.8125 C-60.08271532 89.6959724 -65.03368679 90.17592468 -71.625 86.5 C-74.5625 84.4375 -74.5625 84.4375 -76.625 82.5 C-76.625 81.84 -76.625 81.18 -76.625 80.5 C-77.15867187 80.98210937 -77.69234375 81.46421875 -78.2421875 81.9609375 C-84.8608148 87.57188452 -90.34379775 89.59780004 -99 89.4375 C-102.56958415 88.16264852 -103.63878706 86.71903477 -105.625 83.5 C-106.76403934 80.86016634 -107.70025188 78.22800696 -108.625 75.5 C-110.04264994 76.43601246 -111.45907568 77.3738792 -112.875 78.3125 C-113.66390625 78.83457031 -114.4528125 79.35664063 -115.265625 79.89453125 C-117.59318336 81.40871549 -117.59318336 81.40871549 -119.40625 83.05859375 C-122.67728645 85.18361567 -126.10222396 85.88390185 -129.875 86.75 C-130.60074219 86.935625 -131.32648438 87.12125 -132.07421875 87.3125 C-137.51187005 88.59194736 -143.25681357 89.35395717 -148.37744141 86.53540039 C-152.17924832 83.67003012 -153.78542445 81.11766555 -154.625 76.5 C-156.02186523 64.65534823 -152.94103172 48.75057742 -145.45703125 39.14453125 C-140.52698598 34.71905351 -135.32059951 33.44784482 -128.7890625 33.57421875 C-121.96288139 34.30511633 -117.1402244 35.21312902 -111.625 39.5 C-110.37251498 42.00497004 -110.51125594 43.70853274 -110.52734375 46.5078125 C-110.53056641 47.49394531 -110.53378906 48.48007812 -110.53710938 49.49609375 C-110.54967773 51.04490234 -110.54967773 51.04490234 -110.5625 52.625 C-110.56701172 53.66527344 -110.57152344 54.70554687 -110.57617188 55.77734375 C-110.58798048 58.35161962 -110.60444925 60.92578146 -110.625 63.5 C-107.655 63.005 -107.655 63.005 -104.625 62.5 C-104.56441406 61.943125 -104.50382812 61.38625 -104.44140625 60.8125 C-103.88029435 55.70206543 -103.27409148 50.60000447 -102.625 45.5 C-104.275 44.84 -105.925 44.18 -107.625 43.5 C-107.75 40.125 -107.75 40.125 -107.625 36.5 C-106.965 35.84 -106.305 35.18 -105.625 34.5 C-103.4609375 34.5234375 -103.4609375 34.5234375 -101 34.875 C-100.18273437 34.98585938 -99.36546875 35.09671875 -98.5234375 35.2109375 C-97.89695312 35.30632812 -97.27046875 35.40171875 -96.625 35.5 C-96.5425 34.30375 -96.46 33.1075 -96.375 31.875 C-94.52831898 15.54097635 -94.52831898 15.54097635 -89.8125 10.6015625 C-87.17083433 9.27129514 -85.38234621 9.16300307 -82.4375 9.25 C-81.11685547 9.27320313 -81.11685547 9.27320313 -79.76953125 9.296875 C-77.625 9.5 -77.625 9.5 -76.625 10.5 C-76.66682285 17.71444162 -77.2217527 24.10189507 -80.625 30.5 C-81.285 31.82 -81.945 33.14 -82.625 34.5 C-79.325 34.5 -76.025 34.5 -72.625 34.5 C-73.17223683 37.87462715 -73.6799 39.58235 -75.625 42.5 C-79.12647041 43.6671568 -81.95170036 43.63357453 -85.625 43.5 C-86.285 43.17 -86.945 42.84 -87.625 42.5 C-87.66238281 43.12003906 -87.69976562 43.74007812 -87.73828125 44.37890625 C-88.26118162 51.42268188 -89.52333094 58.14915625 -91.1015625 65.01953125 C-91.62966748 68.53103523 -91.30023586 71.04823461 -90.625 74.5 C-90.955 75.16 -91.285 75.82 -91.625 76.5 C-87.4752148 75.11673827 -85.96551572 72.24148362 -83.625 68.75 C-83.1722168 68.07767334 -82.71943359 67.40534668 -82.25292969 66.71264648 C-78.85922215 61.41978237 -77.40277158 56.58789483 -76.3203125 50.3828125 C-74.77024501 43.95612819 -70.0266224 39.1010816 -64.625 35.5 C-59.46662365 32.63423536 -53.78721637 32.77179244 -48.1484375 34.0703125 C-41.22948011 36.21135795 -41.22948011 36.21135795 -38.625 39.5 C-37.18460432 43.37738944 -36.98526238 46.96929176 -38.58984375 50.80859375 C-43.46356406 58.59844588 -50.64386549 65.90928812 -59.625 68.5 C-62.5625 68.1875 -62.5625 68.1875 -64.625 67.5 C-61.09149669 72.55319454 -61.09149669 72.55319454 -55.8125 75.3125 C-49.80062688 73.78006175 -45.49140435 71.12038227 -41.85546875 66.015625 C-37.23658219 57.17542693 -36.08891124 47.74292163 -34.5546875 38 C-33.07629764 28.82335599 -30.66638746 20.3771679 -25.625 12.5 C-24.97568143 11.31440212 -24.32990747 10.1268568 -23.6875 8.9375 C-18.16982001 -0.68585525 -10.81901826 -4.47683514 0 0 Z M-8.625 8.5 C-8.96273437 9.34304688 -9.30046875 10.18609375 -9.6484375 11.0546875 C-10.09445312 12.15039062 -10.54046875 13.24609375 -11 14.375 C-11.44085938 15.46554687 -11.88171875 16.55609375 -12.3359375 17.6796875 C-13.625 20.5 -13.625 20.5 -15.625 22.5 C-16.42561026 24.59912654 -17.14485967 26.72987403 -17.8125 28.875 C-18.17730469 30.01710938 -18.54210937 31.15921875 -18.91796875 32.3359375 C-19.58360385 35.31474653 -19.70438697 36.70871903 -18.625 39.5 C-9.96962829 24.93099671 -9.96962829 24.93099671 -7.625 8.5 C-7.955 8.5 -8.285 8.5 -8.625 8.5 Z M-58.875 47.1875 C-61.58734614 51.20631653 -63.625 54.56008975 -63.625 59.5 C-58.62063264 57.15241348 -51.95758344 53.83792746 -49.8203125 48.484375 C-49.48802905 46.37962388 -49.48802905 46.37962388 -49.625 43.5 C-54.35665565 42.59873226 -56.07663499 43.51378435 -58.875 47.1875 Z M-128.625 46.5 C-128.955 47.49 -129.285 48.48 -129.625 49.5 C-130.285 49.5 -130.945 49.5 -131.625 49.5 C-132.33686735 51.19492226 -133.04835816 52.89000379 -133.7578125 54.5859375 C-134.625 56.5 -134.625 56.5 -136.3125 59.25 C-138.22040055 63.97432516 -137.86671841 68.46867608 -137.625 73.5 C-134.04172247 74.50217064 -134.04172247 74.50217064 -130.625 73.5 C-130.04953328 71.52039447 -129.56214583 69.51467206 -129.125 67.5 C-128.68785417 65.48532794 -128.20046672 63.47960553 -127.625 61.5 C-126.965 61.17 -126.305 60.84 -125.625 60.5 C-124.32579148 55.08663118 -124.85265385 51.60852714 -126.625 46.5 C-127.285 46.5 -127.945 46.5 -128.625 46.5 Z " fill="#F06837" transform="translate(436.625,267.5)"/>
<path d="M0 0 C2.07436629 1.26709229 2.07436629 1.26709229 4.98046875 1.90625 C10.78419687 4.23225777 13.43139283 10.65767521 15.9921875 16.11328125 C19.23075487 24.07013921 21.74339751 32.48856164 21.9921875 41.11328125 C22.04246094 41.80421875 22.09273438 42.49515625 22.14453125 43.20703125 C22.99909981 63.16975292 16.93450157 81.04867855 3.5546875 95.80078125 C-8.2063094 106.41436382 -19.41358847 110.44096 -35.23828125 110.33984375 C-41.33117417 109.97363879 -47.10612578 108.61061513 -53.0078125 107.11328125 C-54.32265625 106.79423828 -54.32265625 106.79423828 -55.6640625 106.46875 C-57.44905111 106.03193061 -59.22928347 105.5756988 -61.0078125 105.11328125 C-61.15476562 106.05107422 -61.15476562 106.05107422 -61.3046875 107.0078125 C-62.0078125 109.11328125 -62.0078125 109.11328125 -65.2578125 110.80078125 C-72.08079455 113.18882497 -78.43332653 114.53123542 -85.2578125 111.42578125 C-88.70388876 109.50534652 -90.69401395 107.96709032 -92.0078125 104.11328125 C-92.0078125 99.49348677 -91.62264117 96.4475124 -88.8203125 92.73828125 C-85.14654392 89.30943057 -82.61891757 88.03052039 -77.54296875 88.19140625 C-73.59237189 88.53947646 -69.84689108 89.12694271 -66.0078125 90.11328125 C-63.01897611 83.90310175 -60.91565998 77.79410517 -59.2578125 71.11328125 C-59.0117627 70.15212402 -58.76571289 69.1909668 -58.51220703 68.20068359 C-56.94146384 62.01147211 -55.45412991 55.80358557 -53.984375 49.58984375 C-53.6325515 48.11066174 -53.28066335 46.6314951 -52.92871094 45.15234375 C-52.24118192 42.26157144 -51.56654665 39.36819582 -50.89941406 36.47265625 C-46.34310391 16.99848368 -46.34310391 16.99848368 -38.359375 10.5546875 C-32.86033853 7.18401564 -26.4296649 5.74214092 -20.0078125 6.11328125 C-19.0078125 7.11328125 -19.0078125 7.11328125 -18.5703125 9.73828125 C-19.10167944 13.83739761 -20.43784925 15.18831744 -23.3046875 18.01171875 C-27.93792537 23.72887924 -29.94185456 30.62346905 -31.77734375 37.6328125 C-32.02143478 38.53086105 -32.26552582 39.42890961 -32.51701355 40.35417175 C-33.54810777 44.14870444 -34.55977864 47.94833532 -35.57250977 51.74780273 C-38.26606511 61.81070097 -41.06900999 71.77201095 -44.64453125 81.5625 C-44.92085892 82.3244014 -45.19718658 83.0863028 -45.48188782 83.87129211 C-47.25556948 88.58232212 -49.40637293 92.8028616 -52.0078125 97.11328125 C-50.8115625 97.25765625 -49.6153125 97.40203125 -48.3828125 97.55078125 C-45.89762107 97.8559802 -43.47103306 98.21392739 -41.0078125 98.67578125 C-32.72182609 99.88415427 -26.13268345 99.18295265 -19.3203125 94.11328125 C-18.175625 93.12328125 -18.175625 93.12328125 -17.0078125 92.11328125 C-16.2034375 91.72140625 -15.3990625 91.32953125 -14.5703125 90.92578125 C-4.44821611 83.76624966 -0.88650999 68.73973623 1.16723633 57.20141602 C2.99002933 45.61177926 4.10976252 30.18115225 -2.4375 19.859375 C-3.89155909 18.18467511 -5.41697838 16.65617242 -7.0078125 15.11328125 C-9.05048434 12.08449196 -10.19790311 9.64270291 -11.0078125 6.11328125 C-19.3509045 4.85564154 -27.62493024 3.89829649 -36.0703125 3.80078125 C-36.75923584 3.78337891 -37.44815918 3.76597656 -38.15795898 3.74804688 C-44.79877635 3.75449975 -49.89176168 6.17812108 -55.3203125 9.80078125 C-58.79247327 12.11328125 -58.79247327 12.11328125 -61.0078125 12.11328125 C-61.5028125 13.59828125 -61.5028125 13.59828125 -62.0078125 15.11328125 C-63.13348632 16.23895507 -64.26233014 17.36162288 -65.40625 18.46875 C-72.88874589 26.15199578 -76.95934522 32.30665525 -77.3203125 43.17578125 C-77.21412346 47.90709298 -76.94104008 51.23385123 -74.0078125 55.11328125 C-72.20057925 56.43858563 -70.34405141 57.6602558 -68.46875 58.88671875 C-67.0078125 60.11328125 -67.0078125 60.11328125 -66.4453125 62.80078125 C-67.0078125 65.11328125 -67.0078125 65.11328125 -69.0078125 67.11328125 C-76.40324934 68.38901809 -83.56428377 69.36326829 -90.0078125 65.11328125 C-95.58543194 60.5272386 -95.95949292 55.51314847 -96.73046875 48.515625 C-97.31842321 41.30283157 -96.86777691 35.11414106 -95.0078125 28.11328125 C-94.78996094 27.24960938 -94.57210937 26.3859375 -94.34765625 25.49609375 C-92.60117593 19.06370175 -90.79214471 14.9114958 -85.0078125 11.17578125 C-81.62204234 8.84806427 -80.23723447 6.52708364 -78.0078125 3.11328125 C-72.57048789 -2.75330583 -65.48394612 -4.52668522 -58.0078125 -6.88671875 C-57.09386719 -7.221875 -56.17992187 -7.55703125 -55.23828125 -7.90234375 C-37.85581969 -13.50137968 -15.29655646 -9.74282746 0 0 Z M-82.0078125 99.11328125 C-81.6778125 100.43328125 -81.3478125 101.75328125 -81.0078125 103.11328125 C-79.7084375 102.98953125 -78.4090625 102.86578125 -77.0703125 102.73828125 C-76.33941406 102.66867188 -75.60851562 102.5990625 -74.85546875 102.52734375 C-74.24574219 102.39070313 -73.63601562 102.2540625 -73.0078125 102.11328125 C-72.6778125 101.45328125 -72.3478125 100.79328125 -72.0078125 100.11328125 C-75.3078125 99.78328125 -78.6078125 99.45328125 -82.0078125 99.11328125 Z " fill="#0A836A" transform="translate(283.0078125,124.88671875)"/>
<path d="M0 0 C2 2 2 2 2 5.3125 C1 9 1 9 -2 11.375 C-5.3771021 13.76837738 -5.3771021 13.76837738 -5.625 17.8125 C-5.66238281 18.59238281 -5.69976562 19.37226563 -5.73828125 20.17578125 C-6.06662136 23.7189141 -6.91510052 27.06800837 -7.8125 30.5 C-8.16822553 31.87493359 -8.5236879 33.24993529 -8.87890625 34.625 C-9.06211426 35.33269531 -9.24532227 36.04039062 -9.43408203 36.76953125 C-10.42313592 40.66771775 -11.33578487 44.58370561 -12.25 48.5 C-12.4250708 49.24830078 -12.6001416 49.99660156 -12.78051758 50.76757812 C-13.18799093 52.51149024 -13.59415019 54.25570933 -14 56 C-9.05 56 -4.1 56 1 56 C1.09796875 54.79214844 1.1959375 53.58429688 1.296875 52.33984375 C2.01325777 45.93623347 3.634086 39.78892606 5.25 33.5625 C5.53746094 32.39912109 5.82492187 31.23574219 6.12109375 30.03710938 C7.77173129 23.63277986 9.7445931 17.88748091 12.89770508 12.06469727 C14.16229936 9.78927189 14.16229936 9.78927189 15.4375 6.375 C19.41707165 2.68661652 23.5494814 3.51010796 28.78515625 3.69140625 C32 4 32 4 35 5 C35.890625 6.82421875 35.890625 6.82421875 36 9 C34.671875 10.89453125 34.671875 10.89453125 32.75 12.8125 C28.37601242 17.53570814 25.78794322 21.46392246 26 28.125 C26 32.45373013 25.27110614 33.46716823 23 37 C22.1609051 39.51317149 21.44316414 42.04173148 20.74609375 44.59765625 C20.03219042 46.89635023 19.07482954 48.85476408 18 51 C17.61709538 52.99110401 17.27395385 54.99100513 17 57 C18.134375 57.144375 19.26875 57.28875 20.4375 57.4375 C24 58 24 58 25 59 C25.04080783 60.99958364 25.04254356 63.00045254 25 65 C20.63799813 67.44697666 16.97306516 68.50269348 12 69 C8.05653295 80.12621062 8.6970605 91.36090917 9 103 C9.66 103 10.32 103 11 103 C10.67 104.65 10.34 106.3 10 108 C-0.81059863 110.63788027 -0.81059863 110.63788027 -4 110 C-9.01332484 104.8434373 -10.38790665 100.44703828 -10.375 93.375 C-10.37628906 92.64095947 -10.37757813 91.90691895 -10.37890625 91.15063477 C-10.21825538 82.51108652 -8.18001269 74.3210306 -6 66 C-9.63 65.67 -13.26 65.34 -17 65 C-17.13728516 66.47146484 -17.13728516 66.47146484 -17.27734375 67.97265625 C-18.68590316 77.71498802 -24.4646526 88.99571437 -31.875 95.421875 C-32.926875 96.20304687 -32.926875 96.20304687 -34 97 C-34.78375 97.58265625 -35.5675 98.1653125 -36.375 98.765625 C-42.20616041 102.66521353 -47.04500606 103.93159022 -54 104 C-54.72445312 104.04898438 -55.44890625 104.09796875 -56.1953125 104.1484375 C-60.88608429 104.38030074 -64.15004147 103.7231414 -68 101 C-68.75 98.375 -68.75 98.375 -69 96 C-69.66 95.67 -70.32 95.34 -71 95 C-73.90958095 89.2943324 -73.62995397 83.24441869 -73 77 C-70.74039997 72.13316917 -67.4027862 68.96514173 -63 66 C-60.25 66 -60.25 66 -58 67 C-55.65831236 70.51253146 -55.50376323 71.86469356 -56 76 C-56.9590625 77.1446875 -56.9590625 77.1446875 -57.9375 78.3125 C-60.73317042 81.95534327 -61.04686319 85.46364303 -61 90 C-59.14729055 91.85270945 -56.62223941 91.84058451 -54.1328125 92.1171875 C-51.17049223 91.95442265 -49.34837998 90.64112542 -47.25 88.60546875 C-45.16472146 85.92718912 -44.14413983 83.19154795 -43 80 C-42.67 79.34 -42.34 78.68 -42 78 C-41.34 78 -40.68 78 -40 78 C-39.566875 76.63875 -39.566875 76.63875 -39.125 75.25 C-38.23468224 72.67797092 -37.28505587 70.38653234 -36 68 C-37.32 68 -38.64 68 -40 68 C-40.08226668 64.95613276 -39.97608217 62.92824652 -39 60 C-39.62261719 60.54140625 -39.62261719 60.54140625 -40.2578125 61.09375 C-46.69452464 65.94148299 -53.1761946 66.02545022 -61 65 C-66.42367962 62.47518362 -69.78096937 58.68186738 -72.25 53.25 C-74.29385966 44.39327482 -72.73143838 36.78001716 -68.25 28.9375 C-67.13625 27.4834375 -67.13625 27.4834375 -66 26 C-65.5875 25.38511719 -65.175 24.77023437 -64.75 24.13671875 C-54.1260227 9.88841586 -31.42029894 5.25807852 -15.03125 1.89453125 C-12.45768556 1.35872357 -10.15040895 0.71449789 -7.640625 -0.12890625 C-4.6009791 -1.13162968 -3.01288598 -1.00429533 0 0 Z M-20 15 C-22.73543859 15.53984951 -25.4609665 16.10563144 -28.1875 16.6875 C-28.95642578 16.83638672 -29.72535156 16.98527344 -30.51757812 17.13867188 C-35.79138597 18.29302466 -38.36580425 19.82670017 -42 24 C-44.26814695 25.7444386 -46.57916775 27.40504201 -48.9140625 29.05859375 C-53.71141242 33.52354302 -54.60866652 38.97888756 -55.3125 45.1875 C-55.41111328 45.89841797 -55.50972656 46.60933594 -55.61132812 47.34179688 C-56.08514486 51.24619373 -56.25004223 52.62493666 -54 56 C-51.36 55.67 -48.72 55.34 -46 55 C-44.41217241 50.83195258 -43.61177889 47.46454277 -44 43 C-44.65035814 41.65863633 -45.3162955 40.32467746 -46 39 C-46.1875 36.3125 -46.1875 36.3125 -46 34 C-45 33 -45 33 -42.3125 32.625 C-38.89762288 33.01158986 -36.7032716 33.70237752 -34.1328125 36.05078125 C-31.2398406 41.02868808 -32.40757241 47.96380859 -33.46875 53.40234375 C-34 55.3125 -34 55.3125 -35 58 C-33.68 58 -32.36 58 -31 58 C-30.84966309 57.36199463 -30.69932617 56.72398926 -30.54443359 56.06665039 C-27.79928572 44.51233754 -25.03435854 33.09586113 -20.74169922 22.00415039 C-20.1121274 20.35397224 -19.54889996 18.67873685 -19 17 C-19.495 16.01 -19.495 16.01 -20 15 Z " fill="#F06837" transform="translate(260,254)"/>
<path d="M0 0 C3.71777715 0.68285703 5.14936664 2.20424918 8.0625 4.5625 C17.36312133 7.8258759 26.11720802 7.61319825 35.0625 3.5625 C38.13715267 3.06474847 41.05566897 2.67676683 44.0625 3.5625 C46.6078449 6.51062475 47.05139012 8.28355199 47.20703125 12.19140625 C47.09746094 13.48949219 46.98789062 14.78757813 46.875 16.125 C46.77832031 17.42566406 46.68164062 18.72632813 46.58203125 20.06640625 C46.13075704 23.10317631 45.75616827 25.04355337 44.0625 27.5625 C41.25334526 28.96707737 39.17439466 28.81145157 36.0625 28.5625 C34.72819296 27.5637996 33.39492945 26.56370405 32.0625 25.5625 C24.39135399 22.83011085 15.0902061 22.68417451 7.0625 23.5625 C5.70362133 24.5275008 4.36610083 25.52403832 3.0625 26.5625 C0.7734375 26.70703125 0.7734375 26.70703125 -1.5625 26.375 C-2.72652344 26.22998047 -2.72652344 26.22998047 -3.9140625 26.08203125 C-5.9375 25.5625 -5.9375 25.5625 -7.9375 23.5625 C-8.31081427 20.56965851 -8.08250798 17.57024618 -7.9375 14.5625 C-7.90785156 13.76457031 -7.87820313 12.96664062 -7.84765625 12.14453125 C-7.58549769 8.32724679 -7.12107082 5.89564705 -5.25 2.5 C-2.9375 0.5625 -2.9375 0.5625 0 0 Z " fill="#2B2B2B" transform="translate(407.9375,238.4375)"/>
<path d="M0 0 C4.16615169 0.58326124 4.60093028 2.17105683 7.125 5.4375 C9.17200066 6.66007014 11.24692651 7.65781553 13.41796875 8.640625 C15.125 9.4375 15.125 9.4375 16.125 10.4375 C16.40862108 15.2590583 15.87917412 18.94242881 14.125 23.4375 C14.455 23.7675 14.785 24.0975 15.125 24.4375 C15.26615161 27.10808851 15.16747107 29.76182238 15.125 32.4375 C11.33427278 34.54834579 7.70332438 35.16115063 3.46484375 35.875 C0.87444357 36.3554794 0.87444357 36.3554794 -1.875 38.4375 C-7.89487353 38.97498871 -7.89487353 38.97498871 -10.8125 37.375 C-12.42979605 34.42581309 -12.06130138 31.72882441 -11.875 28.4375 C-12.6175 28.56125 -13.36 28.685 -14.125 28.8125 C-16.875 28.4375 -16.875 28.4375 -19.25 25.9375 C-21.35583091 21.40186419 -20.87248497 19.25867734 -19.875 14.4375 C-18.555 14.1075 -17.235 13.7775 -15.875 13.4375 C-15.936875 11.5503125 -15.936875 11.5503125 -16 9.625 C-16.1140374 6.14685927 -15.93425681 5.52638522 -13.875 2.4375 C-11.78125 2.21484375 -11.78125 2.21484375 -9.375 2.375 C-7.02164364 2.56664051 -7.02164364 2.56664051 -4.875 2.4375 C-2.875 0.4375 -2.875 0.4375 0 0 Z M-3.875 14.4375 C-2.875 16.4375 -2.875 16.4375 -2.875 16.4375 Z " fill="#2B2B2B" transform="translate(334.875,242.5625)"/>
<path d="M0 0 C2.3828125 -0.29296875 2.3828125 -0.29296875 5.125 -0.1875 C6.73375 -0.125625 8.3425 -0.06375 10 0 C10.33 3.3 10.66 6.6 11 10 C13.475 10.99 13.475 10.99 16 12 C16 12.99 16 13.98 16 15 C10.12904828 17.47884628 6.3122463 16.67056705 0.2578125 14.921875 C-2 14 -2 14 -3 12 C-2.94921875 9.94140625 -2.94921875 9.94140625 -2.6875 7.5625 C-2.60886719 6.78003906 -2.53023438 5.99757812 -2.44921875 5.19140625 C-2 3 -2 3 0 0 Z M10 12 C11 14 11 14 11 14 Z " fill="#565557" transform="translate(321,245)"/>
<path d="M0 0 C1.78409802 3.06246747 2.22880021 5.22079273 2.125 8.75 C2.10695313 9.54921875 2.08890625 10.3484375 2.0703125 11.171875 C2.03550781 12.07679688 2.03550781 12.07679688 2 13 C-0.875 13.125 -0.875 13.125 -4 13 C-6 11 -6 11 -6.1953125 8.8359375 C-6.17210937 8.02382812 -6.14890625 7.21171875 -6.125 6.375 C-6.10695313 5.55773437 -6.08890625 4.74046875 -6.0703125 3.8984375 C-6.04710937 3.27195313 -6.02390625 2.64546875 -6 2 C-2.25 0.875 -2.25 0.875 0 2 C0 1.34 0 0.68 0 0 Z " fill="#2B2B2B" transform="translate(328,246)"/>
<path d="M0 0 C4.875 0.875 4.875 0.875 6 2 C6.41199125 7.2528884 5.65673037 10.46141895 3 15 C0.525 14.01 0.525 14.01 -2 13 C-2 12.01 -2 11.02 -2 10 C-1.34 9.67 -0.68 9.34 0 9 C0 6.03 0 3.06 0 0 Z " fill="#585858" transform="translate(345,251)"/>
<path d="M0 0 C3.31397305 0.02311758 6.62462757 0.10084539 9.9375 0.1875 C10.86369141 0.19330078 11.78988281 0.19910156 12.74414062 0.20507812 C18.88931321 0.39913621 22.92485735 1.55019585 28.07226562 4.953125 C30.15739381 6.3029631 30.15739381 6.3029631 33.5625 5.8125 C34.366875 5.544375 35.17125 5.27625 36 5 C36 5.66 36 6.32 36 7 C33.19084526 8.40457737 31.11189466 8.24895157 28 8 C27.36449219 7.52304687 26.72898437 7.04609375 26.07421875 6.5546875 C19.24469081 1.43575696 7.19895347 2.41541364 -1 2 C-0.67 1.34 -0.34 0.68 0 0 Z " fill="#333334" transform="translate(416,259)"/>
<path d="M0 0 C3.97450282 0.81112302 5.47906195 2.58566111 8.0625 5.625 C7.52625 5.480625 6.99 5.33625 6.4375 5.1875 C3.66334173 4.53046252 0.87724612 4.07280052 -1.9375 3.625 C-5.08708831 7.04846555 -5.49929109 10.06762737 -5.9375 14.625 C-6.2675 14.625 -6.5975 14.625 -6.9375 14.625 C-7.29516296 10.06479722 -7.49502445 6.67571916 -5.3125 2.5625 C-2.9375 0.625 -2.9375 0.625 0 0 Z " fill="#323233" transform="translate(407.9375,238.375)"/>
<path d="M0 0 C2.97 0 5.94 0 9 0 C8.34 2.64 7.68 5.28 7 8 C6.67 6.68 6.34 5.36 6 4 C4.35 4 2.7 4 1 4 C0.67 2.68 0.34 1.36 0 0 Z " fill="#474748" transform="translate(317,267)"/>
<path d="M0 0 C0.33 0 0.66 0 1 0 C1.33 3.3 1.66 6.6 2 10 C4.475 10.99 4.475 10.99 7 12 C6.34 12.66 5.68 13.32 5 14 C2.525 13.01 2.525 13.01 0 12 C-0.19401633 10.18818595 -0.38004375 8.37551468 -0.5625 6.5625 C-0.66691406 5.55316406 -0.77132813 4.54382813 -0.87890625 3.50390625 C-0.91886719 2.67761719 -0.95882813 1.85132813 -1 1 C-0.67 0.67 -0.34 0.34 0 0 Z " fill="#5C5C5D" transform="translate(330,245)"/>
<path d="M0 0 C1.4540625 0.0309375 1.4540625 0.0309375 2.9375 0.0625 C3.2675 1.0525 3.5975 2.0425 3.9375 3.0625 C2.2875 3.0625 0.6375 3.0625 -1.0625 3.0625 C-1.3925 5.3725 -1.7225 7.6825 -2.0625 10.0625 C-2.3925 10.0625 -2.7225 10.0625 -3.0625 10.0625 C-3.25662181 8.58418779 -3.44262131 7.10480684 -3.625 5.625 C-3.72941406 4.80128906 -3.83382813 3.97757813 -3.94140625 3.12890625 C-3.98136719 2.44699219 -4.02132813 1.76507813 -4.0625 1.0625 C-3.0625 0.0625 -3.0625 0.0625 0 0 Z " fill="#3E3D3F" transform="translate(324.0625,244.9375)"/>
<path d="M0 0 C5.28 0.66 10.56 1.32 16 2 C16 2.33 16 2.66 16 3 C11.05 3 6.1 3 1 3 C0.67 2.01 0.34 1.02 0 0 Z " fill="#333334" transform="translate(416,244)"/>
<path d="M0 0 C4.75 0.75 4.75 0.75 7 3 C4.69 3.66 2.38 4.32 0 5 C-0.33 4.01 -0.66 3.02 -1 2 C-0.67 1.34 -0.34 0.68 0 0 Z " fill="#424243" transform="translate(330,257)"/>
<path d="M0 0 C2.31 0.33 4.62 0.66 7 1 C7.33 1.99 7.66 2.98 8 4 C3.545 3.01 3.545 3.01 -1 2 C-0.67 1.34 -0.34 0.68 0 0 Z " fill="#343434" transform="translate(310,376)"/>
<path d="M0 0 C1.98 0.99 1.98 0.99 4 2 C2.68 2.33 1.36 2.66 0 3 C0 2.01 0 1.02 0 0 Z " fill="#686868" transform="translate(100,282)"/>
<path d="M0 0 C1.65 0 3.3 0 5 0 C5 0.33 5 0.66 5 1 C3.35 1 1.7 1 0 1 C0 0.67 0 0.34 0 0 Z " fill="#434343" transform="translate(124,277)"/>
<path d="M0 0 C0.66 0 1.32 0 2 0 C2 0.66 2 1.32 2 2 C1.34 2 0.68 2 0 2 C0 1.34 0 0.68 0 0 Z " fill="#444444" transform="translate(103,290)"/>
<path d="M0 0 C1.485 0.99 1.485 0.99 3 2 C2.01 2 1.02 2 0 2 C0 1.34 0 0.68 0 0 Z " fill="#2B2B2B" transform="translate(189,241)"/>
<path d="M0 0 C4 1 4 1 4 1 Z " fill="#000000" transform="translate(392,151)"/>
<path d="M0 0 C2 1 2 1 2 1 Z " fill="#232324" transform="translate(106,282)"/>
<path d="M0 0 C2 1 2 1 2 1 Z " fill="#444444" transform="translate(120,279)"/>
<path d="" fill="#3D3D3D" transform="translate(0,0)"/>
<path d="" fill="#444444" transform="translate(0,0)"/>
<path d="" fill="#606060" transform="translate(0,0)"/>
<path d="" fill="#000000" transform="translate(0,0)"/>
<path d="" fill="#000000" transform="translate(0,0)"/>
<path d="" fill="#000000" transform="translate(0,0)"/>
</svg>
