<svg width="24" height="23" viewBox="0 0 24 23" fill="none" xmlns="http://www.w3.org/2000/svg">
<path d="M22.5 10.0625H1.5C0.671578 10.0625 0 10.7061 0 11.5C0 12.2939 0.671578 12.9375 1.5 12.9375H22.5C23.3284 12.9375 24 12.2939 24 11.5C24 10.7061 23.3284 10.0625 22.5 10.0625Z" fill="#0A846B"/>
<path d="M1.5 6.22949H22.5C23.3284 6.22949 24 5.5859 24 4.79199C24 3.99809 23.3284 3.35449 22.5 3.35449H1.5C0.671578 3.35449 0 3.99809 0 4.79199C0 5.5859 0.671578 6.22949 1.5 6.22949Z" fill="#0A846B"/>
<path d="M22.5 16.7715H1.5C0.671578 16.7715 0 17.4151 0 18.209C0 19.0029 0.671578 19.6465 1.5 19.6465H22.5C23.3284 19.6465 24 19.0029 24 18.209C24 17.4151 23.3284 16.7715 22.5 16.7715Z" fill="#0A846B"/>
</svg>
