<svg width="24" height="24" viewBox="0 0 24 24" fill="none" xmlns="http://www.w3.org/2000/svg">
<g clip-path="url(#clip0_921_1345)">
<path d="M14.84 15.85C12.94 16.16 10.87 15.96 9.1 15.3C8.75 14.51 7.86 12.63 7.11 11.88C6.4 11.17 5.37 10.91 4.42 11.08C4.15 10.41 4.01 9.71 4.01 9C4.01 5.14 8.05 2 13.01 2C17.97 2 22.01 5.14 22.01 9C22.01 10.2 21.61 11.38 20.86 12.41C20.54 12.86 20.64 13.48 21.08 13.81C21.26 13.94 21.46 14 21.66 14C21.97 14 22.28 13.86 22.47 13.59C23.47 12.21 24 10.62 24 9C24 4.04 19.07 0 13 0C6.93 0 2 4.04 2 9C2 10.07 2.24 11.11 2.69 12.11C2.25 12.64 2 13.29 2 13.99C2 14.41 2.09 14.81 2.25 15.18C1.25 16.17 0 17.85 0 20C0 22.93 2.39 24 4 24C4.55 24 4.99 23.56 5 23.01C5 22.46 4.56 22.01 4.01 22C3.54 22 2 21.83 2 20C2 18.53 2.94 17.31 3.68 16.57C4.6 16.91 5.94 17.01 7.11 17.01C7.41 17.01 7.69 17.01 7.95 16.99C9.5 17.64 11.24 18 12.99 18C13.72 18 14.45 17.94 15.15 17.83C15.69 17.74 16.06 17.23 15.98 16.68C15.9 16.13 15.38 15.76 14.83 15.85H14.84ZM23.14 21.14L21.59 21.58L21.15 23.13C20.82 24.28 19.19 24.28 18.86 23.13L18.42 21.58L16.87 21.14C15.72 20.81 15.72 19.18 16.87 18.85L18.42 18.41L18.86 16.86C19.19 15.71 20.82 15.71 21.15 16.86L21.59 18.41L23.14 18.85C24.29 19.18 24.29 20.81 23.14 21.14ZM17.25 8.49C18.26 8.78 18.26 10.21 17.25 10.49L15.89 10.88L15.5 12.24C15.21 13.25 13.78 13.25 13.5 12.24L13.11 10.88L11.75 10.49C10.74 10.2 10.74 8.77 11.75 8.49L13.11 8.1L13.5 6.74C13.79 5.73 15.22 5.73 15.5 6.74L15.89 8.1L17.25 8.49Z" fill="#C1C1C1"/>
</g>
<defs>
<clipPath id="clip0_921_1345">
<rect width="24" height="24" fill="white"/>
</clipPath>
</defs>
</svg>
