<svg width="24" height="24" viewBox="0 0 24 24" fill="none" xmlns="http://www.w3.org/2000/svg">
<g clip-path="url(#clip0_921_1860)">
<path d="M20.545 9.436C20.828 8.847 21 8.196 21 7.5C21 5.019 18.981 3 16.5 3C14.019 3 12 5.019 12 7.5C12 7.671 12.032 7.834 12.051 8H8C3.589 8 0 11.589 0 16C0 20.411 3.589 24 8 24H16C20.411 24 24 20.411 24 16C24 13.372 22.685 10.921 20.545 9.436ZM16.5 5C17.878 5 19 6.121 19 7.5C19 8.879 17.878 10 16.5 10C15.122 10 14 8.879 14 7.5C14 6.121 15.122 5 16.5 5ZM16 22H8C4.691 22 2 19.309 2 16C2 12.691 4.691 10 8 10H12.762C13.57 11.205 14.944 12 16.5 12C17.561 12 18.524 11.616 19.294 10.999C20.966 12.104 22 13.983 22 16C22 19.309 19.309 22 16 22ZM15 14C15 14.553 14.552 15 14 15H8C7.449 15 7 15.448 7 16C7 16.552 7.449 17 8 17C8.551 17 9 17.447 9 18C9 18.553 8.552 19 8 19C6.346 19 5 17.654 5 16C5 14.346 6.346 13 8 13H14C14.552 13 15 13.447 15 14ZM6 2.5C6 1.119 7.119 0 8.5 0C9.881 0 11 1.119 11 2.5C11 3.881 9.881 5 8.5 5C7.119 5 6 3.881 6 2.5ZM21 1.5C21 0.672 21.672 0 22.5 0C23.328 0 24 0.672 24 1.5C24 2.328 23.328 3 22.5 3C21.672 3 21 2.328 21 1.5Z" fill="#C1C1C1"/>
</g>
<defs>
<clipPath id="clip0_921_1860">
<rect width="24" height="24" fill="white"/>
</clipPath>
</defs>
</svg>
