<svg width="24" height="24" viewBox="0 0 24 24" fill="none" xmlns="http://www.w3.org/2000/svg">
<path d="M15 5.99707C15 2.68807 12.309 -0.00292969 9.00002 -0.00292969C5.69102 -0.00292969 3.00002 2.68807 3.00002 5.99707C3.00002 9.30607 5.69102 11.9971 9.00002 11.9971C12.309 11.9971 15 9.30607 15 5.99707ZM9.00002 9.99707C6.79402 9.99707 5.00002 8.20307 5.00002 5.99707C5.00002 3.79107 6.79402 1.99707 9.00002 1.99707C11.206 1.99707 13 3.79107 13 5.99707C13 8.20307 11.206 9.99707 9.00002 9.99707ZM8.99202 14.9351C9.06002 15.4831 8.67202 15.9821 8.12302 16.0511C4.63202 16.4871 1.99902 19.4721 1.99902 22.9971C1.99902 23.5491 1.55102 23.9971 0.999023 23.9971C0.447023 23.9971 -0.000976562 23.5491 -0.000976562 22.9971C-0.000976562 18.4661 3.38502 14.6271 7.87502 14.0671C8.41702 13.9981 8.92202 14.3871 8.99102 14.9361L8.99202 14.9351ZM22.696 19.1301L21.722 18.5681C21.888 18.0711 22 17.5491 22 16.9961C22 16.4431 21.889 15.9211 21.722 15.4241L22.696 14.8621C23.174 14.5861 23.338 13.9741 23.062 13.4961C22.785 13.0171 22.175 12.8521 21.696 13.1301L20.723 13.6921C20.018 12.8981 19.079 12.3171 18 12.0981V10.9971C18 10.4451 17.552 9.99707 17 9.99707C16.448 9.99707 16 10.4451 16 10.9971V12.0981C14.921 12.3181 13.982 12.8991 13.277 13.6921L12.304 13.1301C11.824 12.8531 11.214 13.0171 10.938 13.4961C10.662 13.9751 10.826 14.5861 11.304 14.8621L12.278 15.4241C12.112 15.9211 12 16.4431 12 16.9961C12 17.5491 12.111 18.0711 12.278 18.5681L11.304 19.1301C10.826 19.4061 10.662 20.0181 10.938 20.4961C11.124 20.8171 11.459 20.9961 11.805 20.9961C11.974 20.9961 12.146 20.9531 12.304 20.8621L13.277 20.3001C13.982 21.0941 14.921 21.6751 16 21.8941V22.9951C16 23.5471 16.448 23.9951 17 23.9951C17.552 23.9951 18 23.5471 18 22.9951V21.8941C19.079 21.6741 20.018 21.0931 20.723 20.3001L21.696 20.8621C21.854 20.9531 22.026 20.9961 22.195 20.9961C22.541 20.9961 22.877 20.8171 23.062 20.4961C23.338 20.0171 23.174 19.4061 22.696 19.1301ZM17 19.9961C15.346 19.9961 14 18.6501 14 16.9961C14 15.3421 15.346 13.9961 17 13.9961C18.654 13.9961 20 15.3421 20 16.9961C20 18.6501 18.654 19.9961 17 19.9961Z" fill="#0A846B"/>
</svg>
