<svg width="20" height="24" viewBox="0 0 20 24" fill="none" xmlns="http://www.w3.org/2000/svg">
<path d="M15 0H5C2.243 0 0 2.243 0 5V20C0 22.206 1.794 24 4 24H15C17.757 24 20 21.757 20 19V5C20 2.243 17.757 0 15 0ZM18 5V16H6V2H10V10.347C10 10.97 10.791 11.237 11.169 10.742L12.5 8.999L13.831 10.742C14.209 11.237 15 10.97 15 10.347V2C16.654 2 18 3.346 18 5ZM4 2.184V16C3.268 16 2.591 16.212 2 16.556V5C2 3.698 2.839 2.598 4 2.184ZM15 22H4C1.371 21.953 1.373 18.046 4 18H18V19C18 20.654 16.654 22 15 22Z" fill="white"/>
</svg>
