<svg width="362" height="52" viewBox="0 0 362 52" fill="none" xmlns="http://www.w3.org/2000/svg">
<rect x="27" y="13" width="258" height="4" fill="#0A846B"/>
<rect x="285" y="13" width="60" height="4" fill="#84C1B4"/>
<circle cx="122" cy="14" r="14" fill="#0A846B"/>
<path d="M119.762 12.6635C119.424 12.6583 119.099 12.5358 118.841 12.3172C118.304 11.8247 117.978 11.1433 117.933 10.4161C117.791 8.96264 118.585 8.10504 119.442 8.00943C119.648 7.98655 119.857 8.00542 120.056 8.06491C120.255 8.1244 120.44 8.22331 120.6 8.35573C120.839 8.57076 121.033 8.83084 121.17 9.12099C121.308 9.41115 121.387 9.72566 121.403 10.0464C121.533 11.4013 120.908 12.6635 119.762 12.6635ZM119.571 9.16552C119.234 9.20283 119.034 9.68031 119.094 10.3C119.111 10.7164 119.283 11.1114 119.576 11.4078C119.632 11.4623 119.706 11.4943 119.783 11.4975C119.988 11.4748 120.318 10.9489 120.24 10.1566C120.041 9.06874 119.586 9.16552 119.571 9.16844V9.16552ZM116.846 16.1616C116.508 16.1563 116.182 16.0339 115.925 15.8153C115.387 15.3227 115.062 14.6413 115.017 13.9141C114.875 12.4607 115.668 11.6031 116.525 11.5074C116.731 11.4848 116.94 11.5038 117.139 11.5633C117.338 11.6228 117.523 11.7216 117.683 11.8537C117.922 12.0688 118.116 12.3289 118.254 12.619C118.391 12.9092 118.47 13.2237 118.486 13.5445C118.617 14.8994 117.962 16.1616 116.846 16.1616ZM116.654 12.6635C116.318 12.7009 116.117 13.1783 116.178 13.7981C116.195 14.2144 116.367 14.6094 116.66 14.9058C116.716 14.9595 116.789 14.9913 116.867 14.9956C117.072 14.9728 117.401 14.4469 117.324 13.6546C117.169 12.5889 116.669 12.6635 116.654 12.6665V12.6635ZM124.238 12.6635C123.241 12.6705 122.468 11.4008 122.6 10.0447C122.616 9.72391 122.695 9.4094 122.833 9.11924C122.97 8.82909 123.164 8.56901 123.403 8.35398C123.563 8.22235 123.747 8.12405 123.946 8.06487C124.144 8.00569 124.353 7.98684 124.558 8.00943C125.415 8.10504 126.209 8.96264 126.067 10.4161C126.022 11.1435 125.696 11.8252 125.159 12.3178C124.901 12.5362 124.575 12.6584 124.238 12.6635ZM123.762 10.1566C123.684 10.9466 124.014 11.4725 124.218 11.4975C124.295 11.4945 124.367 11.4646 124.424 11.413C124.717 11.1167 124.889 10.7216 124.906 10.3053C125.028 8.77724 123.867 8.87694 123.762 10.1566ZM127.154 16.1616C126.068 16.1616 125.384 14.8988 125.517 13.5427C125.533 13.2219 125.612 12.9074 125.749 12.6173C125.887 12.3271 126.081 12.067 126.319 11.852C126.479 11.7199 126.664 11.6212 126.862 11.5617C127.061 11.5022 127.269 11.4832 127.475 11.5057C128.332 11.6013 129.125 12.4589 128.983 13.9123C128.938 14.6398 128.613 15.3214 128.075 15.8141C127.818 16.0331 127.492 16.1559 127.154 16.1616ZM126.678 13.6546C126.601 14.4446 126.93 14.9705 127.135 14.9956C127.211 14.9915 127.283 14.9617 127.34 14.911C127.633 14.6147 127.805 14.2197 127.822 13.8033C127.88 13.1836 127.682 12.7061 127.346 12.6688C127.331 12.6635 126.734 12.6117 126.678 13.6546ZM124.333 21.9916C123.835 22.0015 123.342 21.8797 122.906 21.6383C122.627 21.4912 122.316 21.4144 122 21.4144C121.684 21.4144 121.373 21.4912 121.094 21.6383C119.337 22.623 117.288 21.5409 117.333 19.0766C117.333 16.3744 119.962 13.8295 122 13.8295C124.038 13.8295 126.667 16.3738 126.667 19.0766C126.667 20.7929 125.707 21.9916 124.333 21.9916ZM122 20.2426C122.499 20.2328 122.991 20.3544 123.427 20.5953C124.732 21.3054 125.52 20.3429 125.5 19.0766C125.5 17.106 123.446 14.9956 122 14.9956C120.554 14.9956 118.5 17.106 118.5 19.0766C118.481 20.3411 119.263 21.3054 120.573 20.5953C121.009 20.3544 121.501 20.2328 122 20.2426Z" fill="white"/>
<circle cx="14" cy="14" r="14" fill="#0A846B"/>
<g clip-path="url(#clip0_370_974)">
<path d="M14 14C14.6922 14 15.3689 13.7947 15.9445 13.4101C16.5201 13.0256 16.9687 12.4789 17.2336 11.8394C17.4985 11.1999 17.5678 10.4961 17.4327 9.81719C17.2977 9.13825 16.9644 8.51461 16.4749 8.02513C15.9854 7.53564 15.3617 7.2023 14.6828 7.06725C14.0039 6.9322 13.3001 7.00152 12.6606 7.26642C12.0211 7.53133 11.4744 7.97993 11.0899 8.55551C10.7053 9.13108 10.5 9.80777 10.5 10.5C10.5009 11.428 10.87 12.3177 11.5261 12.9739C12.1823 13.63 13.072 13.9991 14 14ZM14 8.16667C14.4615 8.16667 14.9126 8.30352 15.2963 8.55991C15.68 8.8163 15.9791 9.18071 16.1557 9.60707C16.3323 10.0334 16.3785 10.5026 16.2885 10.9552C16.1985 11.4078 15.9762 11.8236 15.6499 12.1499C15.3236 12.4762 14.9078 12.6985 14.4552 12.7885C14.0026 12.8785 13.5334 12.8323 13.1071 12.6557C12.6807 12.4791 12.3163 12.18 12.0599 11.7963C11.8035 11.4126 11.6667 10.9615 11.6667 10.5C11.6667 9.88116 11.9125 9.28767 12.3501 8.85009C12.7877 8.4125 13.3812 8.16667 14 8.16667Z" fill="white"/>
<path d="M14 15.1667C12.6081 15.1682 11.2736 15.7218 10.2894 16.7061C9.30516 17.6903 8.75154 19.0247 8.75 20.4167C8.75 20.5714 8.81146 20.7197 8.92085 20.8291C9.03025 20.9385 9.17862 21 9.33333 21C9.48804 21 9.63642 20.9385 9.74581 20.8291C9.85521 20.7197 9.91667 20.5714 9.91667 20.4167C9.91667 19.3337 10.3469 18.2951 11.1126 17.5293C11.8784 16.7635 12.917 16.3333 14 16.3333C15.083 16.3333 16.1216 16.7635 16.8874 17.5293C17.6531 18.2951 18.0833 19.3337 18.0833 20.4167C18.0833 20.5714 18.1448 20.7197 18.2542 20.8291C18.3636 20.9385 18.512 21 18.6667 21C18.8214 21 18.9697 20.9385 19.0791 20.8291C19.1885 20.7197 19.25 20.5714 19.25 20.4167C19.2485 19.0247 18.6948 17.6903 17.7106 16.7061C16.7264 15.7218 15.3919 15.1682 14 15.1667Z" fill="white"/>
</g>
<circle cx="338" cy="14" r="14" fill="#84C1B4"/>
<g clip-path="url(#clip1_370_974)">
<path d="M341.256 11.9356C341.59 12.2838 341.58 12.838 341.231 13.1728L338.545 15.7535C338.155 16.1379 337.64 16.3304 337.123 16.3304C336.606 16.3304 336.088 16.1379 335.693 15.7523L334.79 14.9427C334.431 14.6195 334.401 14.0665 334.725 13.7072C335.048 13.3484 335.6 13.3175 335.961 13.6413L336.889 14.4754C337.028 14.6096 337.213 14.6107 337.324 14.4999L340.019 11.9111C340.368 11.5762 340.92 11.5862 341.256 11.9356ZM345 14C345 17.8599 341.86 21 338 21C334.14 21 331 17.8599 331 14C331 10.1401 334.14 7 338 7C341.86 7 345 10.1401 345 14ZM343.25 14C343.25 11.1055 340.895 8.75 338 8.75C335.105 8.75 332.75 11.1055 332.75 14C332.75 16.8945 335.105 19.25 338 19.25C340.895 19.25 343.25 16.8945 343.25 14Z" fill="white"/>
</g>
<circle cx="230" cy="14" r="14" fill="#0A846B"/>
<path d="M230 6C225.589 6 222 9.58867 222 14C222 18.4113 225.589 22 230 22C234.411 22 238 18.4113 238 14C238 9.58867 234.411 6 230 6ZM230 20.6667C226.324 20.6667 223.333 17.676 223.333 14C223.333 10.324 226.324 7.33333 230 7.33333C233.676 7.33333 236.667 10.324 236.667 14C236.667 17.676 233.676 20.6667 230 20.6667ZM232.667 15.3333C232.667 16.436 231.769 17.3333 230.667 17.3333V18C230.667 18.3687 230.369 18.6667 230 18.6667C229.631 18.6667 229.333 18.3687 229.333 18V17.3333H229.155C228.443 17.3333 227.779 16.9507 227.423 16.334C227.238 16.0147 227.347 15.6073 227.665 15.4233C227.985 15.2373 228.393 15.348 228.576 15.666C228.695 15.8727 228.917 16 229.154 16H230.666C231.034 16 231.333 15.7013 231.333 15.3333C231.333 15.0813 231.152 14.868 230.903 14.8267L228.876 14.4887C227.981 14.34 227.333 13.5733 227.333 12.6667C227.333 11.564 228.23 10.6667 229.333 10.6667V10C229.333 9.632 229.631 9.33333 229.999 9.33333C230.368 9.33333 230.666 9.632 230.666 10V10.6667H230.845C231.556 10.6667 232.22 11.05 232.577 11.6667C232.761 11.9853 232.652 12.3927 232.334 12.5773C232.014 12.762 231.607 12.6527 231.423 12.334C231.304 12.128 231.083 12.0007 230.845 12.0007H229.333C228.965 12.0007 228.667 12.3 228.667 12.6673C228.667 12.9193 228.847 13.1327 229.096 13.174L231.123 13.512C232.018 13.6607 232.667 14.4273 232.667 15.334V15.3333Z" fill="white"/>
<defs>
<clipPath id="clip0_370_974">
<rect width="14" height="14" fill="white" transform="translate(7 7)"/>
</clipPath>
<clipPath id="clip1_370_974">
<rect width="14" height="14" fill="white" transform="translate(331 7)"/>
</clipPath>
</defs>
</svg>
