<svg width="20" height="20" viewBox="0 0 20 20" fill="none" xmlns="http://www.w3.org/2000/svg">
<path d="M9.99247 7.80488C11.1829 7.80488 12.1353 8.78049 12.1353 10C12.1353 11.2195 11.1829 12.1951 9.99247 12.1951C8.80199 12.1951 7.84961 11.2195 7.84961 10C7.84961 8.78049 8.80199 7.80488 9.99247 7.80488ZM7.84961 2.19512C7.84961 3.41463 8.80199 4.39024 9.99247 4.39024C11.1829 4.39024 12.1353 3.41463 12.1353 2.19512C12.1353 0.97561 11.1829 0 9.99247 0C8.80199 0 7.84961 0.97561 7.84961 2.19512ZM7.84961 17.8049C7.84961 19.0244 8.80199 20 9.99247 20C11.1829 20 12.1353 19.0244 12.1353 17.8049C12.1353 16.5854 11.1829 15.6098 9.99247 15.6098C8.80199 15.6098 7.84961 16.5854 7.84961 17.8049Z" fill="#0A846B"/>
</svg>
